<svg width="33" height="33" viewBox="0 0 33 33" fill="none" xmlns="http://www.w3.org/2000/svg">
<path fill-rule="evenodd" clip-rule="evenodd" d="M8.82898 0H24.1684C29.0448 0 32.9987 3.87756 33 8.65949V23.6393C33 28.4212 29.0461 32.2988 24.1697 32.2988H8.83028C3.95389 32.2988 0 28.4225 0 23.6393V8.65949C0 3.87756 3.95389 0 8.82898 0ZM21.4752 8.7461C20.9948 8.74276 20.5148 8.73943 20.0348 8.75528V8.75658C19.0683 8.79151 18.3515 9.15248 18.3179 10.3363C18.2946 11.2006 18.2843 13.1918 18.2843 13.1918C18.2843 13.1918 20.5549 13.1957 21.5434 13.1918H22.3248C22.2374 13.8475 22.1523 14.4907 22.0679 15.1287C21.9749 15.8314 21.8828 16.528 21.7892 17.2285H18.3114V27.3124H14.047V17.2116H10.5576V13.1931H14.0677V12.8903C14.0673 12.654 14.0656 12.4177 14.0639 12.1814C14.0598 11.6104 14.0557 11.0393 14.0703 10.4683C14.0845 9.95465 14.1078 9.43065 14.1984 8.92477C14.417 7.69953 14.9928 6.66189 16.0408 5.92183C16.9542 5.2801 18.0009 5.01616 19.1058 4.99288C19.7654 4.97754 20.426 5.00631 21.0857 5.03505C21.1494 5.03782 21.2131 5.0406 21.2768 5.04333C21.5612 5.05639 21.8456 5.08759 22.1233 5.11804C22.2308 5.12984 22.3374 5.14153 22.4426 5.15201V8.74881H22.1515C21.9259 8.74923 21.7005 8.74766 21.4752 8.7461Z" fill="#FFA161"/>
</svg>
