<svg width="33" height="32" viewBox="0 0 33 32" fill="none" xmlns="http://www.w3.org/2000/svg">
<path fill-rule="evenodd" clip-rule="evenodd" d="M8.64888 0H23.6754C28.4523 0 32.3256 3.79846 32.3269 8.48285V23.1571C32.3269 27.8414 28.4536 31.6399 23.6767 31.6399H8.65015C3.87324 31.6399 0 27.8427 0 23.1571V8.48285C0 3.79846 3.87324 0 8.64888 0ZM24.8503 7.12157C25.8833 8.08861 26.4169 9.2952 26.5588 10.6589C26.7286 12.2914 26.8972 19.9948 26.4143 21.8046C25.7819 24.1621 24.2166 25.5638 21.7844 25.9491C19.9454 26.2406 11.7528 26.2951 10.0861 25.8731C7.67804 25.2647 6.24078 23.7362 5.84027 21.3522C5.54623 19.6095 5.44611 11.4802 5.94927 9.71725C6.60453 7.42448 8.15585 6.06961 10.5221 5.69192C12.5931 5.36112 18.4917 5.44477 20.9758 5.57785C22.4334 5.65389 23.7629 6.10383 24.8503 7.12157ZM21.2496 24.1456C23.1051 23.9466 24.3307 22.8262 24.6133 21.015L24.6146 21.0138C24.8998 19.1862 24.8465 12.5373 24.6577 10.8364C24.4549 9.01383 23.313 7.80978 21.4714 7.53221C19.678 7.26352 12.9404 7.28633 11.0684 7.49166C9.22302 7.69318 7.99869 8.81358 7.71986 10.6082C7.42328 12.5157 7.48285 19.6424 7.72239 21.0683C7.97334 22.5613 8.83899 23.5816 10.351 23.996C11.9315 24.4295 19.5449 24.3293 21.2496 24.1456ZM10.7427 15.8186C10.7439 12.8833 13.1723 10.5056 16.1647 10.5069C19.1571 10.5094 21.5817 12.8896 21.5804 15.825C21.5791 18.7603 19.1507 21.138 16.1584 21.1367C13.166 21.1342 10.7414 18.754 10.7427 15.8186ZM12.6539 15.7869C12.6362 17.6855 14.1913 19.2381 16.1267 19.2546C18.062 19.2723 19.645 17.7476 19.6628 15.849C19.6805 13.9504 18.1254 12.3978 16.19 12.3814C14.2547 12.3636 12.6717 13.8883 12.6539 15.7869ZM21.7908 11.5474C22.4917 11.5499 23.062 10.9935 23.0633 10.3066C23.0645 9.61966 22.498 9.06072 21.7971 9.05946C21.0962 9.05692 20.5259 9.61332 20.5246 10.3003C20.5234 10.9872 21.0899 11.5461 21.7908 11.5474Z" fill="#FFA161"/>
</svg>
