<svg width="33" height="33" viewBox="0 0 33 33" fill="none" xmlns="http://www.w3.org/2000/svg">
<path fill-rule="evenodd" clip-rule="evenodd" d="M24.1684 0H8.82898C3.95389 0 0 3.87756 0 8.65949V23.6393C0 28.4225 3.95389 32.2988 8.83027 32.2988H24.1697C29.0461 32.2988 33 28.4212 33 23.6393V8.65949C32.9987 3.87756 29.0448 0 24.1684 0ZM11.3092 11.7194V24.0119H7.40707V11.7194H11.3092ZM9.35814 5.61131C10.6054 5.61131 11.6171 6.60367 11.6171 7.82503C11.6171 9.04639 10.6067 10.0426 9.35814 10.0426C8.10961 10.0426 7.09656 9.04897 7.09656 7.82503C7.09656 6.60108 8.10703 5.61131 9.35814 5.61131ZM17.4897 11.7194H13.7532L13.7519 11.7181V24.0106H17.6463V17.931C17.6463 16.3279 17.9866 14.7754 19.9829 14.7754C21.9793 14.7754 22.0077 16.6087 22.0077 18.0358V24.0119H25.9008V17.2698C25.9008 13.959 25.1737 11.4153 21.2288 11.4153C19.3321 11.4153 18.0616 12.4336 17.5402 13.4013H17.4897V11.7194Z" fill="#FFA161"/>
</svg>
